<?xml version="1.0" encoding="utf-8"?>
<!-- Generator: Adobe Illustrator 25.0.1, SVG Export Plug-In . SVG Version: 6.00 Build 0)  -->
<svg version="1.1" id="Warstwa_1" xmlns="http://www.w3.org/2000/svg" xmlns:xlink="http://www.w3.org/1999/xlink" x="0px" y="0px"
	 viewBox="0 0 21 21" style="enable-background:new 0 0 21 21;" xml:space="preserve">
<style type="text/css">
	.st0{fill-rule:evenodd;clip-rule:evenodd;fill:#4D4C4C;}
</style>
<path class="st0" d="M21,3l-0.1,17.2c0,0.4-0.4,0.8-0.8,0.8H0.8C0.4,21,0,20.6,0,20.2L0.1,3c0-0.4,0.4-0.8,0.8-0.8h4.4V0.5
	C5.3,0.2,5.5,0,5.8,0c0.3,0,0.5,0.2,0.5,0.5v1.7h8.8V0.5c0-0.3,0.2-0.5,0.5-0.5c0.3,0,0.6,0.2,0.6,0.5v1.7h3.9C20.6,2.2,21,2.6,21,3
	z"/>
</svg>
