<?xml version="1.0" encoding="utf-8"?>
<!-- Generator: Adobe Illustrator 25.0.1, SVG Export Plug-In . SVG Version: 6.00 Build 0)  -->
<svg version="1.1" id="Warstwa_1" xmlns="http://www.w3.org/2000/svg" xmlns:xlink="http://www.w3.org/1999/xlink" x="0px" y="0px"
	 viewBox="0 0 23 22" style="enable-background:new 0 0 23 22;" xml:space="preserve">
<style type="text/css">
	.st0{fill-rule:evenodd;clip-rule:evenodd;fill:#4D4C4C;}
</style>
<path class="st0" d="M22.9,21.2l-3.6-7C19.2,14.1,19,14,18.8,14h-5l2.9-4.8c1.1-1.8,1.2-4.1,0.1-6c-1-1.9-2.8-3-4.9-3.2
	c-0.2,0-0.5,0-0.8,0C9.2,0.1,7.3,1.3,6.4,3.2c-1,1.9-1,4.2,0.2,6L9.4,14h-5c-0.2,0-0.4,0.1-0.5,0.3l-3.8,7c-0.1,0.2-0.1,0.4,0,0.5
	C0.2,21.9,0.3,22,0.5,22h21.9l0,0c0.2,0,0.4-0.1,0.5-0.2C23,21.6,23,21.4,22.9,21.2z M11.6,6.8c-0.8,0-1.4-0.6-1.4-1.4
	c0-0.8,0.7-1.4,1.4-1.4C12.4,4,13,4.6,13,5.4C13,6.2,12.4,6.8,11.6,6.8z"/>
</svg>
