<svg width="22" height="22" viewBox="0 0 22 22" fill="none" xmlns="http://www.w3.org/2000/svg">
<path d="M21.0858 22H14.844C14.3396 22 13.9298 21.5886 13.9298 21.0823V15.0108H8.06627V21.0823C8.06627 21.5886 7.65646 22 7.15207 22H0.914204C0.409815 22 0 21.5886 0 21.0823V7.66163C0 7.35311 0.153681 7.06832 0.405875 6.89824L10.4936 0.154261C10.801 -0.0514204 11.199 -0.0514204 11.5064 0.154261L21.5941 6.89824C21.8503 7.06832 22 7.35311 22 7.66163V21.0784C22 21.5847 21.5902 21.996 21.0858 21.996V22ZM15.0331 20.8925H20.8967V7.76447L11.002 1.14311L1.09941 7.76447V20.8925H6.96292V14.8209C6.96292 14.3146 7.37274 13.9033 7.87713 13.9033H14.1189C14.6233 13.9033 15.0331 14.3146 15.0331 14.8209V20.8925Z" fill="#4D4C4C"/>
</svg>
