<svg width="23" height="20" viewBox="0 0 23 20" fill="none" xmlns="http://www.w3.org/2000/svg">
<path fill-rule="evenodd" clip-rule="evenodd" d="M18.8043 20L18.8043 20H18.8004H4.19963C1.88435 20 0 18.1676 0 15.9162V12.9334C0 12.4915 0.368251 12.1334 0.822688 12.1334H3.65115V0.8C3.65115 0.358095 4.0194 0 4.47384 0H22.1812C22.6357 0 23.0039 0.358095 23.0039 0.8V15.9162C23.0039 18.1676 21.1196 20 18.8043 20ZM18.8004 18.9334V18.9333C20.5123 18.9333 21.9031 17.581 21.9031 15.9162V1.06667H4.74415V12.1334H14.8789C15.3333 12.1334 15.7016 12.4915 15.7016 12.9334V15.9162C15.7016 17.5797 17.0902 18.9313 18.8004 18.9334ZM1.093 15.9162V13.2H14.6007V15.9162C14.6007 17.1086 15.1335 18.1867 15.9758 18.9334H4.19571C2.48373 18.9334 1.093 17.581 1.093 15.9162ZM18.6828 6.10286H8.20337C7.90171 6.10286 7.65491 5.86286 7.65491 5.56953C7.65491 5.27619 7.90171 5.03619 8.20337 5.03619H18.6828C18.9845 5.03619 19.2313 5.27619 19.2313 5.56953C19.2313 5.86286 18.9845 6.10286 18.6828 6.10286ZM8.20337 9.83235H18.6828C18.9845 9.83235 19.2313 9.59235 19.2313 9.29902C19.2313 9.00569 18.9845 8.76569 18.6828 8.76569H8.20337C7.90171 8.76569 7.65491 9.00569 7.65491 9.29902C7.65491 9.59235 7.90171 9.83235 8.20337 9.83235Z" fill="#4D4C4C"/>
</svg>
